# xmcd CD database file
# Copyright (C) 1993-1998 Ti Kan
# 
# Track frame offsets:
# 150
# 13134
# 26656
# 46783
# 66008
# 84100
# 97167
# 114536
# 128708
# 145250
# 186960
# 
# Disc length: 4037 seconds
# 
# Revision: 0
# Processed by: cddbd v1.4b41PL1 Copyright (c) Steve Scherf et al.
# Submitted via: SuperSonic v3.01
# 
DISCID=8f0fc30b
DTITLE=Various Artist - The Future Of Christian Music
DYEAR=1900
DGENRE=
TTITLE0=Hope To Carry On
TTITLE1=Drinking Water
TTITLE2=Something To Hold On To
TTITLE3=Bright Red Carpet
TTITLE4=Just Say It
TTITLE5=Crazy
TTITLE6=The Water Is Free
TTITLE7=Mercy Me
TTITLE8=Prophet, Priest, And King
TTITLE9=Rain
TTITLE10=?
EXTD=
EXTT0=
EXTT1=
EXTT2=
EXTT3=
EXTT4=
EXTT5=
EXTT6=
EXTT7=
EXTT8=
EXTT9=
EXTT10=
PLAYORDER=
